# File created by Blade
# Date/Time:  Fri Jan 16 19:14:28 2015
# Frame Rate: 120.000 fps
#------------------------------------------------------
:FULLY-SPECIFIED
:DEGREES
659
root 18.807309 35.617229 -23.566043 -164.645185 -0.977651 -178.492569
Spine -32.989314 2.013172 1.266401
Head 26.803569 -1.443257 -1.363372
LeftShoulder -33.244131 -49.363062 58.082823
LeftArm 34.324786 -64.201220 -6.379284
LeftForeArm -10.220518 -0.000000 123.060883
LeftHand -19.986688 0.000000 -19.548551
LeftHandThumb1 -26.253704 0.000000 33.147579
RightShoulder -22.239952 16.115385 -36.856743
RightArm 36.633017 78.572032 1.912333
RightForeArm -84.376642 -0.000000 140.173029
RightHand -8.809999 -0.000000 42.056378
RightHandThumb1 -24.326973 -0.000000 -32.862282
LeftUpLeg -3.262593 7.148265 0.071314
LeftLeg -7.711838 -0.000000 0.000000
LeftFoot -22.104020 28.151567 -17.374439
LeftToeBase 23.319257 -0.000000 -0.000000
RightUpLeg -5.119312 -9.459141 1.300012
RightLeg -4.195718 -0.000000 0.000000
RightFoot -21.185731 -22.166537 21.347564
RightToeBase 22.306437 -0.000000 -0.000000
660
root 18.808295 35.618263 -23.559799 -164.637632 -0.976682 -178.481204
Spine -32.962860 2.014156 1.274700
Head 26.787610 -1.419237 -1.325744
LeftShoulder -33.269734 -49.367615 58.103416
LeftArm 34.310351 -64.212867 -6.370848
LeftForeArm -10.244586 -0.000000 123.071884
LeftHand -20.002596 -0.000000 -19.531817
LeftHandThumb1 -26.253704 0.000000 33.147579
RightShoulder -22.271973 16.165827 -36.847693
RightArm 36.933692 78.536082 2.171730
RightForeArm -84.211527 -0.000000 140.191468
RightHand -8.923240 -0.000000 42.183940
RightHandThumb1 -24.326973 -0.000000 -32.862282
LeftUpLeg -3.284029 7.143379 0.083187
LeftLeg -7.706248 -0.000000 0.000000
LeftFoot -22.097151 28.163278 -17.356593
LeftToeBase 23.299191 -0.000000 -0.000000
RightUpLeg -5.116765 -9.366063 1.301286
RightLeg -4.231314 -0.000000 0.000000
RightFoot -21.189898 -22.233788 21.376501
RightToeBase 22.315975 -0.000000 -0.000000
661
root 18.808409 35.618391 -23.554927 -164.642909 -0.980675 -178.482341
Spine -32.932381 2.009303 1.275164
Head 26.765156 -1.430760 -1.324901
LeftShoulder -33.273727 -49.359942 58.095917
LeftArm 34.334089 -64.223514 -6.411562
LeftForeArm -10.216328 -0.000000 123.075575
LeftHand -20.003986 0.000000 -19.505738
LeftHandThumb1 -26.253704 0.000000 33.147579
RightShoulder -22.314281 16.073014 -36.849045
RightArm 37.288571 78.599445 2.581356
RightForeArm -84.223414 -0.000000 140.207911
RightHand -8.910732 -0.000000 42.173462
RightHandThumb1 -24.326973 -0.000000 -32.862282
LeftUpLeg -3.286917 7.141498 0.083235
LeftLeg -7.705662 -0.000000 0.000000
LeftFoot -22.087126 28.163254 -17.342173
LeftToeBase 23.309174 -0.000000 -0.000000
RightUpLeg -5.115076 -9.378758 1.304657
RightLeg -4.240743 -0.000000 0.000000
RightFoot -21.170370 -22.239524 21.356374
RightToeBase 22.317283 -0.000000 -0.000000
662
root 18.807675 35.618583 -23.549231 -164.644828 -0.975543 -178.485593
Spine -32.906376 2.010056 1.270577
Head 26.748275 -1.455034 -1.336398
LeftShoulder -33.266068 -49.362353 58.079911
LeftArm 34.328964 -64.233346 -6.401121
LeftForeArm -10.210708 -0.000000 123.057555
LeftHand -19.968855 -0.000000 -19.473475
LeftHandThumb1 -26.253704 0.000000 33.147579
RightShoulder -22.322754 16.065327 -36.844792
RightArm 37.516810 78.630800 2.824299
RightForeArm -84.152520 -0.000000 140.179069
RightHand -8.891820 -0.000000 42.104218
RightHandThumb1 -24.326973 -0.000000 -32.862282
LeftUpLeg -3.298408 7.152836 0.076440
LeftLeg -7.697233 -0.000000 0.000000
LeftFoot -22.074268 28.162151 -17.316644
LeftToeBase 23.296459 -0.000000 -0.000000
RightUpLeg -5.119816 -9.351967 1.297175
RightLeg -4.241773 -0.000000 0.000000
RightFoot -21.177926 -22.262434 21.359742
RightToeBase 22.328319 -0.000000 -0.000000
663
root 18.807466 35.619108 -23.543333 -164.645249 -0.976669 -178.485937
Spine -32.884612 2.009562 1.272930
Head 26.723192 -1.479764 -1.365366
LeftShoulder -33.257146 -49.376311 58.062703
LeftArm 34.355627 -64.234792 -6.423720
LeftForeArm -10.227997 -0.000000 123.045882
LeftHand -19.995733 -0.000000 -19.455125
LeftHandThumb1 -26.253704 0.000000 33.147579
RightShoulder -22.328296 16.055398 -36.828114
RightArm 37.804554 78.675640 3.083812
RightForeArm -83.974228 -0.000000 140.176513
RightHand -8.934298 -0.000000 42.147025
RightHandThumb1 -24.326973 -0.000000 -32.862282
LeftUpLeg -3.306840 7.146891 0.074965
LeftLeg -7.698284 -0.000000 0.000000
LeftFoot -22.071178 28.172643 -17.311724
LeftToeBase 23.324675 -0.000000 -0.000000
RightUpLeg -5.131199 -9.385630 1.301681
RightLeg -4.238562 -0.000000 0.000000
RightFoot -21.166930 -22.241138 21.332275
RightToeBase 22.389462 -0.000000 -0.000000
664
root 18.808066 35.619117 -23.537140 -164.644470 -0.974333 -178.486355
Spine -32.858659 2.009574 1.270983
Head 26.703015 -1.499189 -1.389603
LeftShoulder -33.250285 -49.383941 58.051870
LeftArm 34.386239 -64.261757 -6.463178
LeftForeArm -10.294456 -0.000000 123.020708
LeftHand -19.988448 0.000000 -19.492060
LeftHandThumb1 -26.253704 0.000000 33.147579
RightShoulder -22.341111 16.059625 -36.833745
RightArm 37.935540 78.678582 3.213631
RightForeArm -84.156999 -0.000000 140.122232
RightHand -8.803340 -0.000000 42.027880
RightHandThumb1 -24.326973 -0.000000 -32.862282
LeftUpLeg -3.317625 7.157264 0.073171
LeftLeg -7.697565 -0.000000 0.000000
LeftFoot -22.066575 28.167415 -17.299974
LeftToeBase 23.336037 -0.000000 -0.000000
RightUpLeg -5.139575 -9.382449 1.303170
RightLeg -4.242400 -0.000000 0.000000
RightFoot -21.151440 -22.248697 21.315886
RightToeBase 22.370487 -0.000000 -0.000000
665
root 18.806353 35.619232 -23.531485 -164.646699 -0.971313 -178.492279
Spine -32.833167 2.006832 1.273176
Head 26.683246 -1.524767 -1.426569
LeftShoulder -33.231329 -49.383650 58.029820
LeftArm 34.384143 -64.280253 -6.470540
LeftForeArm -10.332506 0.000000 123.002641
LeftHand -19.996362 -0.000000 -19.505998
LeftHandThumb1 -26.253704 0.000000 33.147579
RightShoulder -22.354105 16.030699 -36.793735
RightArm 38.238143 78.711253 3.433667
RightForeArm -84.163820 0.000000 140.127091
RightHand -8.803815 -0.000000 42.211280
RightHandThumb1 -24.326973 -0.000000 -32.862282
LeftUpLeg -3.325205 7.161885 0.063352
LeftLeg -7.694953 -0.000000 0.000000
LeftFoot -22.066224 28.154976 -17.305850
LeftToeBase 23.297424 -0.000000 -0.000000
RightUpLeg -5.179539 -9.508283 1.312860
RightLeg -4.187519 -0.000000 0.000000
RightFoot -21.125589 -22.130181 21.259533
RightToeBase 22.603211 -0.000000 -0.000000
666
root 18.805277 35.619253 -23.525161 -164.649394 -0.968578 -178.499478
Spine -32.805826 2.004553 1.273729
Head 26.671198 -1.535678 -1.464587
LeftShoulder -33.232598 -49.393605 58.025684
LeftArm 34.423363 -64.268703 -6.525677
LeftForeArm -10.318738 -0.000000 122.992097
LeftHand -19.988138 -0.000000 -19.514634
LeftHandThumb1 -26.253704 0.000000 33.147579
RightShoulder -22.351879 16.018068 -36.819157
RightArm 38.307724 78.759310 3.566987
RightForeArm -84.241657 0.000000 140.064691
RightHand -8.646318 -0.000000 41.967612
RightHandThumb1 -24.326973 -0.000000 -32.862282
LeftUpLeg -3.330171 7.161538 0.052790
LeftLeg -7.697210 -0.000000 0.000000
LeftFoot -22.050777 28.163239 -17.285348
LeftToeBase 23.322330 -0.000000 -0.000000
RightUpLeg -5.186861 -9.522984 1.305374
RightLeg -4.185253 -0.000000 0.000000
RightFoot -21.113174 -22.127545 21.208906
RightToeBase 22.639914 -0.000000 -0.000000
667
root 18.805557 35.619528 -23.518461 -164.642416 -0.956681 -178.502431
Spine -32.790052 2.008005 1.265441
Head 26.654593 -1.535080 -1.458592
LeftShoulder -33.209508 -49.391333 58.009643
LeftArm 34.420486 -64.275778 -6.527571
LeftForeArm -10.318970 -0.000000 122.975403
LeftHand -19.982376 -0.000000 -19.520579
LeftHandThumb1 -26.253704 0.000000 33.147579
RightShoulder -22.331346 16.022966 -36.801252
RightArm 38.301034 78.791329 3.542784
RightForeArm -84.070353 0.000000 140.090605
RightHand -8.694038 -0.000000 42.012856
RightHandThumb1 -24.326973 -0.000000 -32.862282
LeftUpLeg -3.343943 7.175859 0.045034
LeftLeg -7.703228 -0.000000 0.000000
LeftFoot -22.046046 28.160903 -17.283196
LeftToeBase 23.327368 -0.000000 -0.000000
RightUpLeg -5.206000 -9.515230 1.300427
RightLeg -4.180445 -0.000000 0.000000
RightFoot -21.110069 -22.118318 21.206158
RightToeBase 22.650512 -0.000000 -0.000000
668
root 18.805799 35.620192 -23.511896 -164.631276 -0.952227 -178.503736
Spine -32.781015 2.002432 1.265584
Head 26.647554 -1.559305 -1.476341
LeftShoulder -33.198288 -49.394028 57.995992
LeftArm 34.430273 -64.262516 -6.530755
LeftForeArm -10.311115 -0.000000 122.962007
LeftHand -20.004809 -0.000000 -19.504985
LeftHandThumb1 -26.253704 0.000000 33.147579
RightShoulder -22.315906 16.039655 -36.786263
RightArm 38.322208 78.773286 3.519643
RightForeArm -84.096476 -0.000000 140.072315
RightHand -8.705609 -0.000000 42.094124
RightHandThumb1 -24.326973 -0.000000 -32.862282
LeftUpLeg -3.367533 7.186920 0.038629
LeftLeg -7.698511 -0.000000 0.000000
LeftFoot -22.034162 28.160492 -17.270655
LeftToeBase 23.337033 -0.000000 -0.000000
RightUpLeg -5.221688 -9.500317 1.298295
RightLeg -4.188694 -0.000000 0.000000
RightFoot -21.102646 -22.121425 21.211385
RightToeBase 22.376813 -0.000000 -0.000000
669
root 18.805637 35.620661 -23.506579 -164.629247 -0.956221 -178.507575
Spine -32.756730 1.989993 1.267397
Head 26.634735 -1.529321 -1.458668
LeftShoulder -33.195904 -49.392997 57.980536
LeftArm 34.349123 -64.246290 -6.429835
LeftForeArm -10.341252 -0.000000 122.936807
LeftHand -19.981020 -0.000000 -19.439513
LeftHandThumb1 -26.253704 0.000000 33.147579
RightShoulder -22.312876 16.044644 -36.785286
RightArm 38.250032 78.774022 3.446402
RightForeArm -84.079893 -0.000000 140.037506
RightHand -8.770068 -0.000000 42.023764
RightHandThumb1 -24.326973 -0.000000 -32.862282
LeftUpLeg -3.377682 7.177466 0.035281
LeftLeg -7.701231 -0.000000 0.000000
LeftFoot -22.024005 28.166835 -17.258482
LeftToeBase 23.324937 -0.000000 -0.000000
RightUpLeg -5.230149 -9.501488 1.296123
RightLeg -4.191004 -0.000000 0.000000
RightFoot -21.100185 -22.128295 21.195071
RightToeBase 22.427734 -0.000000 -0.000000
670
root 18.806370 35.621456 -23.501509 -164.628601 -0.961364 -178.506583
Spine -32.739446 1.979795 1.268112
Head 26.645136 -1.535956 -1.458328
LeftShoulder -33.177864 -49.391710 57.967207
LeftArm 34.339337 -64.224418 -6.426757
LeftForeArm -10.336436 -0.000000 122.926698
LeftHand -19.961353 -0.000000 -19.398755
LeftHandThumb1 -26.253704 0.000000 33.147579
RightShoulder -22.309362 16.055686 -36.785755
RightArm 38.263258 78.743561 3.454619
RightForeArm -84.104375 -0.000000 140.010541
RightHand -8.716456 -0.000000 42.046165
RightHandThumb1 -24.326973 -0.000000 -32.862282
LeftUpLeg -3.381266 7.159710 0.039201
LeftLeg -7.712200 -0.000000 0.000000
LeftFoot -22.007462 28.176815 -17.255238
LeftToeBase 23.319405 -0.000000 -0.000000
RightUpLeg -5.232234 -9.495695 1.298152
RightLeg -4.208039 -0.000000 0.000000
RightFoot -21.083573 -22.133131 21.209439
RightToeBase 22.690729 -0.000000 -0.000000
